<?xml version="1.0" encoding="utf-8"?>
<!-- Generator: Adobe Illustrator 27.7.0, SVG Export Plug-In . SVG Version: 6.00 Build 0)  -->
<svg version="1.1" id="Ebene_1" xmlns="http://www.w3.org/2000/svg" xmlns:xlink="http://www.w3.org/1999/xlink" x="0px" y="0px"
	 viewBox="0 0 114.5 164.1" style="enable-background:new 0 0 114.5 164.1;" xml:space="preserve">
<style type="text/css">
	.st0{fill:#FFCA1E;}
</style>
<path class="st0" d="M35.3,136.8h-16c-3,0-5.5-2.4-5.5-5.5V32.7c0-3,2.4-5.5,5.5-5.5h16c3,0,5.5,2.4,5.5,5.5v98.6
	C40.7,134.4,38.3,136.8,35.3,136.8z"/>
<path class="st0" d="M96.8,136.8h-16c-3,0-5.5-2.4-5.5-5.5V32.7c0-3,2.4-5.5,5.5-5.5h16c3,0,5.5,2.4,5.5,5.5v98.6
	C102.2,134.4,99.8,136.8,96.8,136.8z"/>
</svg>
